<svg width="28" height="28" viewBox="0 0 28 28" fill="none" xmlns="http://www.w3.org/2000/svg">
<rect width="28" height="28" rx="14" fill="white"/>
<path fill-rule="evenodd" clip-rule="evenodd" d="M13.9997 13.0569L17.5283 9.52827C17.7886 9.26792 18.2107 9.26792 18.4711 9.52827C18.7314 9.78862 18.7314 10.2107 18.4711 10.4711L14.9425 13.9997L18.4711 17.5283C18.7314 17.7886 18.7314 18.2107 18.4711 18.4711C18.2107 18.7314 17.7886 18.7314 17.5283 18.4711L13.9997 14.9425L10.4711 18.4711C10.2107 18.7314 9.78862 18.7314 9.52827 18.4711C9.26792 18.2107 9.26792 17.7886 9.52827 17.5283L13.0569 13.9997L9.52827 10.4711C9.26792 10.2107 9.26792 9.78862 9.52827 9.52827C9.78862 9.26792 10.2107 9.26792 10.4711 9.52827L13.9997 13.0569Z" fill="#676E7E"/>
</svg>
