<svg width="20" height="21" viewBox="0 0 20 21" fill="none" xmlns="http://www.w3.org/2000/svg">
<path d="M18.3333 7.60002V3.81669C18.3333 2.64169 17.8 2.16669 16.475 2.16669H13.1083C11.7833 2.16669 11.25 2.64169 11.25 3.81669V7.59169C11.25 8.77502 11.7833 9.24169 13.1083 9.24169H16.475C17.8 9.25002 18.3333 8.77502 18.3333 7.60002Z" stroke="#858585" stroke-width="1.5" stroke-linecap="round" stroke-linejoin="round"/>
<path d="M18.3333 16.975V13.6083C18.3333 12.2833 17.8 11.75 16.475 11.75H13.1083C11.7833 11.75 11.25 12.2833 11.25 13.6083V16.975C11.25 18.3 11.7833 18.8333 13.1083 18.8333H16.475C17.8 18.8333 18.3333 18.3 18.3333 16.975Z" stroke="#858585" stroke-width="1.5" stroke-linecap="round" stroke-linejoin="round"/>
<path d="M8.74984 7.60002V3.81669C8.74984 2.64169 8.2165 2.16669 6.8915 2.16669H3.52484C2.19984 2.16669 1.6665 2.64169 1.6665 3.81669V7.59169C1.6665 8.77502 2.19984 9.24169 3.52484 9.24169H6.8915C8.2165 9.25002 8.74984 8.77502 8.74984 7.60002Z" stroke="#858585" stroke-width="1.5" stroke-linecap="round" stroke-linejoin="round"/>
<path d="M8.74984 16.975V13.6083C8.74984 12.2833 8.2165 11.75 6.8915 11.75H3.52484C2.19984 11.75 1.6665 12.2833 1.6665 13.6083V16.975C1.6665 18.3 2.19984 18.8333 3.52484 18.8333H6.8915C8.2165 18.8333 8.74984 18.3 8.74984 16.975Z" stroke="#858585" stroke-width="1.5" stroke-linecap="round" stroke-linejoin="round"/>
</svg>
