<svg width="30" height="34" viewBox="0 0 30 34" fill="none" xmlns="http://www.w3.org/2000/svg">
<path d="M16.2084 17C16.2084 16.2585 15.6674 15.6574 15 15.6574C14.3327 15.6574 13.7917 16.2585 13.7917 17C13.7917 17.7415 14.3327 18.3426 15 18.3426C15.6674 18.3426 16.2084 17.7415 16.2084 17Z" stroke="#98A1B0" stroke-width="2" stroke-linecap="round" stroke-linejoin="round"/>
<path d="M7.75004 17C7.75004 16.2585 7.20905 15.6574 6.54171 15.6574C5.87436 15.6574 5.33337 16.2585 5.33337 17C5.33337 17.7415 5.87436 18.3426 6.54171 18.3426C7.20905 18.3426 7.75004 17.7415 7.75004 17Z" stroke="#98A1B0" stroke-width="2" stroke-linecap="round" stroke-linejoin="round"/>
<path d="M24.6667 17C24.6667 16.2585 24.1257 15.6574 23.4584 15.6574C22.791 15.6574 22.25 16.2585 22.25 17C22.25 17.7415 22.791 18.3426 23.4584 18.3426C24.1257 18.3426 24.6667 17.7415 24.6667 17Z" stroke="#98A1B0" stroke-width="2" stroke-linecap="round" stroke-linejoin="round"/>
</svg>
