<svg width="20" height="21" viewBox="0 0 20 21" fill="none" xmlns="http://www.w3.org/2000/svg">
<g clip-path="url(#clip0_371_15181)">
<path d="M10.0002 13.0002C11.3809 13.0002 12.5002 11.8809 12.5002 10.5002C12.5002 9.11945 11.3809 8.00016 10.0002 8.00016C8.61945 8.00016 7.50016 9.11945 7.50016 10.5002C7.50016 11.8809 8.61945 13.0002 10.0002 13.0002Z" stroke="#667085" stroke-width="1.66667" stroke-linecap="round" stroke-linejoin="round"/>
<path d="M16.1668 13.0002C16.0559 13.2515 16.0228 13.5303 16.0718 13.8007C16.1208 14.071 16.2497 14.3204 16.4418 14.5168L16.4918 14.5668C16.6468 14.7216 16.7697 14.9054 16.8536 15.1078C16.9375 15.3101 16.9806 15.527 16.9806 15.746C16.9806 15.965 16.9375 16.1819 16.8536 16.3842C16.7697 16.5866 16.6468 16.7704 16.4918 16.9252C16.337 17.0801 16.1532 17.2031 15.9509 17.2869C15.7486 17.3708 15.5317 17.414 15.3127 17.414C15.0936 17.414 14.8768 17.3708 14.6744 17.2869C14.4721 17.2031 14.2883 17.0801 14.1335 16.9252L14.0835 16.8752C13.8871 16.683 13.6376 16.5542 13.3673 16.5052C13.097 16.4561 12.8182 16.4892 12.5668 16.6002C12.3204 16.7058 12.1101 16.8812 11.9621 17.1048C11.814 17.3283 11.7346 17.5903 11.7335 17.8585V18.0002C11.7335 18.4422 11.5579 18.8661 11.2453 19.1787C10.9328 19.4912 10.5089 19.6668 10.0668 19.6668C9.6248 19.6668 9.20088 19.4912 8.88832 19.1787C8.57576 18.8661 8.40016 18.4422 8.40016 18.0002V17.9252C8.39371 17.6493 8.30443 17.3818 8.14392 17.1574C7.98341 16.933 7.75911 16.7621 7.50016 16.6668C7.24882 16.5559 6.97 16.5228 6.69967 16.5718C6.42934 16.6208 6.17989 16.7497 5.9835 16.9418L5.9335 16.9918C5.77871 17.1468 5.59489 17.2697 5.39256 17.3536C5.19023 17.4375 4.97335 17.4806 4.75433 17.4806C4.5353 17.4806 4.31843 17.4375 4.1161 17.3536C3.91377 17.2697 3.72995 17.1468 3.57516 16.9918C3.4202 16.837 3.29727 16.6532 3.2134 16.4509C3.12952 16.2486 3.08635 16.0317 3.08635 15.8127C3.08635 15.5936 3.12952 15.3768 3.2134 15.1744C3.29727 14.9721 3.4202 14.7883 3.57516 14.6335L3.62516 14.5835C3.81728 14.3871 3.94615 14.1376 3.99517 13.8673C4.04418 13.597 4.01109 13.3182 3.90016 13.0668C3.79453 12.8204 3.61913 12.6101 3.39555 12.4621C3.17198 12.314 2.90998 12.2346 2.64183 12.2335H2.50016C2.05814 12.2335 1.63421 12.0579 1.32165 11.7453C1.00909 11.4328 0.833496 11.0089 0.833496 10.5668C0.833496 10.1248 1.00909 9.70088 1.32165 9.38832C1.63421 9.07576 2.05814 8.90016 2.50016 8.90016H2.57516C2.85099 8.89371 3.1185 8.80443 3.34291 8.64392C3.56732 8.48341 3.73826 8.25911 3.8335 8.00016C3.94443 7.74882 3.97752 7.47 3.9285 7.19967C3.87948 6.92934 3.75061 6.67989 3.5585 6.4835L3.5085 6.4335C3.35354 6.27871 3.2306 6.09489 3.14673 5.89256C3.06286 5.69023 3.01968 5.47335 3.01968 5.25433C3.01968 5.0353 3.06286 4.81843 3.14673 4.6161C3.2306 4.41377 3.35354 4.22995 3.5085 4.07516C3.66328 3.9202 3.8471 3.79727 4.04943 3.7134C4.25176 3.62952 4.46864 3.58635 4.68766 3.58635C4.90669 3.58635 5.12357 3.62952 5.3259 3.7134C5.52823 3.79727 5.71204 3.9202 5.86683 4.07516L5.91683 4.12516C6.11323 4.31728 6.36268 4.44615 6.633 4.49517C6.90333 4.54418 7.18215 4.51109 7.4335 4.40016H7.50016C7.74664 4.29453 7.95684 4.11913 8.10491 3.89555C8.25297 3.67198 8.33243 3.40998 8.3335 3.14183V3.00016C8.3335 2.55814 8.50909 2.13421 8.82165 1.82165C9.13421 1.50909 9.55813 1.3335 10.0002 1.3335C10.4422 1.3335 10.8661 1.50909 11.1787 1.82165C11.4912 2.13421 11.6668 2.55814 11.6668 3.00016V3.07516C11.6679 3.34332 11.7474 3.60531 11.8954 3.82888C12.0435 4.05246 12.2537 4.22786 12.5002 4.3335C12.7515 4.44443 13.0303 4.47752 13.3007 4.4285C13.571 4.37948 13.8204 4.25061 14.0168 4.0585L14.0668 4.0085C14.2216 3.85354 14.4054 3.7306 14.6078 3.64673C14.8101 3.56286 15.027 3.51968 15.246 3.51968C15.465 3.51968 15.6819 3.56286 15.8842 3.64673C16.0866 3.7306 16.2704 3.85354 16.4252 4.0085C16.5801 4.16328 16.7031 4.3471 16.7869 4.54943C16.8708 4.75176 16.914 4.96864 16.914 5.18766C16.914 5.40669 16.8708 5.62357 16.7869 5.8259C16.7031 6.02823 16.5801 6.21204 16.4252 6.36683L16.3752 6.41683C16.183 6.61323 16.0542 6.86268 16.0052 7.133C15.9561 7.40333 15.9892 7.68215 16.1002 7.9335V8.00016C16.2058 8.24664 16.3812 8.45684 16.6048 8.60491C16.8283 8.75297 17.0903 8.83243 17.3585 8.8335H17.5002C17.9422 8.8335 18.3661 9.00909 18.6787 9.32165C18.9912 9.63421 19.1668 10.0581 19.1668 10.5002C19.1668 10.9422 18.9912 11.3661 18.6787 11.6787C18.3661 11.9912 17.9422 12.1668 17.5002 12.1668H17.4252C17.157 12.1679 16.895 12.2474 16.6714 12.3954C16.4479 12.5435 16.2725 12.7537 16.1668 13.0002Z" stroke="#667085" stroke-width="1.66667" stroke-linecap="round" stroke-linejoin="round"/>
</g>
<defs>
<clipPath id="clip0_371_15181">
<rect width="20" height="20" fill="white" transform="translate(0 0.5)"/>
</clipPath>
</defs>
</svg>
